HIERARCHY
ROOT Hips
{
	OFFSET 0.000000 8.830580 0.000000
	CHANNELS 6 Xposition Yposition Zposition Zrotation Yrotation Xrotation 
	JOINT Spine
	{
		OFFSET 0.000000 0.010000 0.000000
		CHANNELS 3 Zrotation Yrotation Xrotation
		JOINT Spine1
		{
			OFFSET 0.000000 2.459130 0.000000
			CHANNELS 3 Zrotation Yrotation Xrotation
			JOINT Neck
			{
				OFFSET 0.000000 2.484630 0.000000
				CHANNELS 3 Zrotation Yrotation Xrotation
				JOINT Head_virtual
				{
					OFFSET 0.000000 0.000000 0.000000
					CHANNELS 3 Zrotation Yrotation Xrotation
					JOINT Head
					{
						OFFSET 0.000000 0.927525 0.000000
						CHANNELS 3 Zrotation Yrotation Xrotation
						End Site
						{
							OFFSET 0.000000 0.000000 0.000000
						}
					}
				}
				JOINT LeftUpArm_virtual
				{
					OFFSET 0.000000 0.000000 0.000000
					CHANNELS 3 Zrotation Yrotation Xrotation
					JOINT LeftUpArm
					{
						OFFSET 1.248820 0.000000 0.000000
						CHANNELS 3 Zrotation Yrotation Xrotation
						JOINT LeftForeArm
						{
							OFFSET 2.597580 0.000000 0.000000
							CHANNELS 3 Zrotation Yrotation Xrotation
							JOINT LeftHand
							{
								OFFSET 2.455420 0.000000 0.000000
								CHANNELS 3 Zrotation Yrotation Xrotation
								End Site
								{
									OFFSET 0.000000 0.000000 0.000000
								}
							}
						}
					}
				}
				JOINT RightUpArm_virtual
				{
					OFFSET -0.000000 -0.000000 -0.000000
					CHANNELS 3 Zrotation Yrotation Xrotation
					JOINT RightUpArm
					{
						OFFSET -1.248820 -0.000000 -0.000000
						CHANNELS 3 Zrotation Yrotation Xrotation
						JOINT RightForeArm
						{
							OFFSET -2.597580 -0.000000 -0.000000
							CHANNELS 3 Zrotation Yrotation Xrotation
							JOINT RightHand
							{
								OFFSET -2.455420 -0.000000 -0.000000
								CHANNELS 3 Zrotation Yrotation Xrotation
								End Site
								{
									OFFSET 0.000000 0.000000 0.000000
								}
							}
						}
					}
				}
			}
		}
	}
	JOINT LeftUpLeg
	{
		OFFSET 1.271939 0.000000 0.000000
		CHANNELS 3 Zrotation Yrotation Xrotation
		JOINT LeftLowLeg
		{
			OFFSET 0.000000 -4.342910 0.000000
			CHANNELS 3 Zrotation Yrotation Xrotation
			JOINT LeftFoot
			{
				OFFSET 0.000000 -4.487670 0.000000
				CHANNELS 3 Zrotation Yrotation Xrotation
				JOINT LeftToeBase
				{
					OFFSET 0.000000 0.000000 1.515070
					CHANNELS 3 Zrotation Yrotation Xrotation
					End Site
					{
						OFFSET 0.000000 0.000000 0.000000
					}
				}
			}
		}
	}
	JOINT RightUpLeg
	{
		OFFSET -1.271939 0.000000 0.000000
		CHANNELS 3 Zrotation Yrotation Xrotation
		JOINT RightLowLeg
		{
			OFFSET 0.000000 -4.342910 0.000000
			CHANNELS 3 Zrotation Yrotation Xrotation
			JOINT RightFoot
			{
				OFFSET 0.000000 -4.487670 0.000000
				CHANNELS 3 Zrotation Yrotation Xrotation
				JOINT RightToeBase
				{
					OFFSET 0.000000 0.000000 1.515070
					CHANNELS 3 Zrotation Yrotation Xrotation
					End Site
					{
						OFFSET 0.000000 0.000000 0.000000
					}
				}
			}
		}
	}
}
MOTION
Frames: 17
Frame Time: 0.041667
-14.486476 9.191763 30.333391 -165.538529 -51.882544 163.543091 6.239900 -6.939926 -19.068642 3.330922 -3.215399 40.983017 0.000000 0.000000 0.000000 14.696679 -6.848526 3.094155 15.610731 -3.986471 -58.405770 -28.315701 -4.697820 -14.122800 -37.203499 -3.544420 -164.289993 0.000000 37.088902 0.000000 9.593490 -3.732590 -166.746002 26.722799 2.063270 -8.238710 36.917500 6.487060 13.061000 0.000000 24.689501 0.000000 -1.809720 -0.071038 -7.452020 13.188416 9.075122 14.143052 0.000000 0.000000 9.417120 -7.583163 3.553802 1.144902 0.000000 0.000000 -10.727170 3.857130 29.126005 -4.922224 0.000000 0.000000 15.304100 14.423010 -16.249352 15.085956 0.000000 0.000000 -11.238370 
-14.464073 9.178579 30.456359 -166.113048 -50.612764 164.348123 5.909535 -7.051108 -18.905744 3.394074 -3.147103 41.138740 0.000000 0.000000 0.000000 14.215885 -6.645207 2.577872 15.625185 -4.105833 -58.724351 -28.337601 -4.551110 -13.979700 -37.232201 -4.058070 -164.977997 0.000000 37.770901 0.000000 9.941690 -3.443820 -166.718994 26.457399 2.548970 -7.010190 36.984798 6.986610 12.599800 0.000000 25.264299 0.000000 -1.933000 -0.025308 -7.884900 11.829103 7.895285 14.135842 0.000000 0.000000 8.488970 -7.397793 5.964669 0.506140 0.000000 0.000000 -9.911820 2.837076 30.016897 -6.065049 0.000000 0.000000 15.234200 14.527764 -16.057530 15.717072 0.000000 0.000000 -11.353030 
-14.437770 9.167681 30.581581 -166.674234 -49.323947 165.154892 5.753527 -6.626800 -18.717552 3.237658 -2.804485 41.373414 0.000000 0.000000 0.000000 14.422028 -6.928278 1.861638 15.491149 -3.828940 -59.079558 -28.311300 -4.841550 -13.860500 -36.780800 -4.591180 -164.716003 0.000000 38.490700 0.000000 9.912130 -3.171040 -167.567001 26.645599 2.319350 -7.121220 37.160500 7.109280 12.751000 0.000000 25.755100 0.000000 -0.938634 -0.057864 -11.954500 10.718160 7.255280 14.000757 0.000000 0.000000 7.738600 -7.440798 7.559628 0.046000 0.000000 0.000000 -9.293280 1.764157 30.635252 -7.050884 0.000000 0.000000 14.654200 14.494884 -15.683743 16.618862 0.000000 0.000000 -11.442830 
-14.412888 9.161413 30.701878 -167.275422 -47.949488 165.865111 5.806942 -5.840695 -18.623506 2.328965 -2.458086 41.902388 0.000000 0.000000 0.000000 14.891523 -7.146965 1.079733 15.236595 -3.221674 -59.161939 -27.727600 -5.057950 -14.108100 -36.527401 -4.886640 -164.237000 0.000000 39.070702 0.000000 9.534350 -2.938290 -168.143005 27.151100 2.224690 -7.320800 37.429100 7.218630 13.152900 0.000000 26.112000 0.000000 -1.497520 0.104458 -10.708000 9.980327 7.571921 14.112474 0.000000 0.000000 6.829070 -7.469054 8.011728 0.045746 0.000000 0.000000 -8.988390 0.778533 31.089464 -7.672693 0.000000 0.000000 13.592700 14.200116 -15.227917 17.832654 0.000000 0.000000 -11.759110 
-14.391549 9.159523 30.816495 -167.868118 -46.514821 166.500809 5.972525 -4.889027 -18.571224 1.125221 -2.092576 42.436123 0.000000 0.000000 0.000000 15.335658 -7.233341 0.541550 14.939234 -2.573871 -59.178345 -27.054199 -5.195280 -14.205500 -36.253799 -5.241930 -163.968002 0.000000 39.340302 0.000000 9.249150 -2.754140 -168.630997 27.758301 2.219930 -7.479610 37.728699 7.219980 13.747200 0.000000 26.337099 0.000000 -1.087420 0.356727 -11.741500 9.399259 8.369334 14.489933 0.000000 0.000000 5.554620 -7.367471 8.110297 0.455758 0.000000 0.000000 -8.838740 -0.079672 31.076201 -8.046583 0.000000 0.000000 12.230900 13.663454 -14.570701 19.357710 0.000000 0.000000 -12.591580 
-14.373258 9.160372 30.921951 -168.321233 -45.122576 167.080945 6.311677 -3.801369 -18.654551 -0.411571 -1.761851 42.857029 0.000000 0.000000 0.000000 15.592354 -7.126703 0.288188 15.023299 -2.113518 -59.173255 -26.185900 -5.236610 -14.413400 -36.090900 -5.412920 -163.695999 0.000000 39.286098 0.000000 9.198860 -2.634800 -168.959000 28.462299 2.249010 -7.598610 38.162399 7.097410 14.507000 0.000000 26.379000 0.000000 -0.959140 0.508624 -11.494800 8.854330 8.996908 15.004864 0.000000 0.000000 3.874260 -7.132939 8.447693 1.150181 0.000000 0.000000 -8.908060 -0.742964 30.535920 -8.338900 0.000000 0.000000 10.772300 12.978165 -13.798878 21.061456 0.000000 0.000000 -14.445153 
-14.357213 9.161996 31.017443 -168.472859 -43.914914 167.647410 6.886485 -2.629173 -18.911861 -2.223404 -1.530000 42.964422 0.000000 0.000000 0.000000 16.112391 -7.090167 0.421685 14.344269 -1.353539 -59.093895 -25.250000 -5.128920 -14.377800 -35.931900 -5.609110 -163.542007 0.000000 38.928001 0.000000 9.040440 -2.592890 -168.809998 29.339100 2.251720 -7.368160 38.560299 7.003380 15.268200 0.000000 26.243601 0.000000 -0.663844 0.560767 -11.159200 8.402897 9.282069 15.351662 0.000000 0.000000 2.032530 -6.855874 9.009124 1.851044 0.000000 0.000000 -8.824730 -1.122306 29.152748 -8.777583 0.000000 0.000000 9.535200 12.333571 -13.066988 22.617234 0.000000 0.000000 -17.012540 
-14.340158 9.164811 31.101745 -168.413115 -42.948047 168.163136 7.491263 -1.598038 -19.261287 -4.147917 -1.453371 42.887216 0.000000 0.000000 0.000000 16.647586 -6.974327 0.654629 13.163659 -0.465975 -58.743722 -24.258499 -4.814800 -14.446100 -35.881802 -5.630760 -163.539001 0.000000 38.324799 0.000000 9.222850 -2.693740 -168.257004 30.269899 2.355830 -7.364650 39.009201 6.592820 16.201401 0.000000 25.995800 0.000000 -0.640643 0.532285 -8.015980 8.075466 9.373778 15.438891 0.000000 0.000000 0.412391 -6.731335 9.583788 2.387542 0.000000 0.000000 -8.615380 -1.116395 27.057262 -9.278200 0.000000 0.000000 8.789560 12.175940 -13.331387 23.507374 0.000000 0.000000 -19.769150 
-14.318946 9.168672 31.177464 -168.277197 -42.268623 168.610882 7.945950 -0.760249 -19.507486 -5.879671 -1.446342 42.531445 0.000000 0.000000 0.000000 16.907968 -6.715851 1.032167 12.480202 0.117481 -58.458296 -23.382099 -4.564250 -14.376700 -35.856602 -5.511670 -163.848007 0.000000 37.458599 0.000000 9.550410 -2.820960 -167.569000 31.305500 2.285310 -7.169210 39.295898 6.330700 17.482700 0.000000 25.535000 0.000000 -0.005028 0.609266 -7.456020 7.807019 9.316818 15.112012 0.000000 0.000000 -0.475060 -6.506582 10.111848 2.717949 0.000000 0.000000 -8.601780 -0.824078 24.638621 -9.784843 0.000000 0.000000 8.694800 12.716281 -14.762576 23.322851 0.000000 0.000000 -20.873720 
-14.291929 9.175319 31.245412 -168.189011 -41.906355 169.013821 8.109580 -0.264812 -19.631719 -7.330057 -1.519012 42.120101 0.000000 0.000000 0.000000 17.041792 -6.382151 1.310393 11.898473 0.665441 -58.238942 -22.643400 -4.253650 -14.419900 -35.942902 -5.309110 -164.330002 0.000000 36.366600 0.000000 9.702080 -2.982560 -166.738998 32.304901 2.117780 -7.461120 39.558998 5.907880 18.894100 0.000000 24.995800 0.000000 1.005770 0.516372 -7.157850 7.578339 9.335410 14.365365 0.000000 0.000000 -0.535313 -6.191374 10.417851 2.808026 0.000000 0.000000 -8.438650 -0.477865 22.510196 -10.327568 0.000000 0.000000 9.298410 13.988543 -16.496409 22.372371 0.000000 0.000000 -20.847710 
-14.262521 9.183909 31.308363 -168.166964 -41.646184 169.274776 8.389661 0.560600 -19.538573 -9.166484 -1.486480 41.800536 0.000000 0.000000 0.000000 17.813076 -6.469734 1.304303 11.080781 1.622256 -57.975998 -21.268801 -4.025440 -15.041100 -36.733101 -4.733010 -165.373993 0.000000 34.960800 0.000000 10.480700 -3.295160 -164.934998 33.404701 1.791600 -8.761010 40.131100 4.802270 20.794701 0.000000 24.500799 0.000000 2.566250 0.056137 -5.370160 7.369955 9.488776 13.547517 0.000000 0.000000 -0.120695 -5.898329 10.608832 2.808544 0.000000 0.000000 -8.403310 -0.132673 21.152068 -10.833104 0.000000 0.000000 10.432400 14.487729 -17.413454 21.605425 0.000000 0.000000 -20.694300 
-14.233609 9.195095 31.363633 -168.068224 -41.500453 169.138320 8.362018 0.751465 -19.230118 -10.080438 -1.596130 41.527985 0.000000 0.000000 0.000000 17.574812 -6.087161 1.469939 10.810949 1.851835 -58.161759 -20.794701 -3.888540 -14.708600 -36.925999 -4.584910 -166.837006 0.000000 33.543598 0.000000 10.829600 -3.300910 -163.929993 33.856201 1.786590 -8.055160 40.460201 4.819490 21.589399 0.000000 24.064100 0.000000 3.465970 -0.314728 -4.323810 7.234163 9.252233 12.954307 0.000000 0.000000 0.524141 -5.622829 11.011701 2.751600 0.000000 0.000000 -8.448080 0.317127 20.590406 -10.963940 0.000000 0.000000 11.681900 13.491758 -17.223163 21.908000 0.000000 0.000000 -20.896120 
-14.206565 9.204877 31.415064 -168.019842 -41.274025 168.982329 8.683395 1.601980 -18.763908 -11.722272 -1.542578 41.215985 0.000000 0.000000 0.000000 18.218210 -6.181974 1.645816 10.161529 2.677744 -58.391011 -19.547701 -3.739720 -15.073900 -38.041302 -4.082520 -169.654999 0.000000 31.671301 0.000000 11.864900 -3.791820 -161.509995 34.571098 1.597820 -8.565680 41.083900 3.924690 22.973700 0.000000 23.747200 0.000000 4.590420 -0.725472 -3.753860 7.097620 9.085880 12.412883 0.000000 0.000000 1.271470 -5.401805 11.432975 2.628594 0.000000 0.000000 -8.499690 0.606759 21.242779 -11.133894 0.000000 0.000000 13.124800 12.815071 -16.410165 22.731868 0.000000 0.000000 -21.794590 
-14.183992 9.212534 31.458923 -167.974452 -40.990083 168.741918 8.944979 2.297490 -18.316346 -13.006564 -1.536246 40.778762 0.000000 0.000000 0.000000 18.284103 -5.967746 2.225743 9.800478 2.977962 -58.739219 -18.748699 -3.891320 -14.584700 -38.960499 -3.686020 -174.432007 0.000000 29.661400 0.000000 13.518100 -3.819630 -158.548004 34.937698 1.853790 -7.430220 41.459000 3.550840 23.563299 0.000000 23.753799 0.000000 5.193280 -1.069450 -2.816810 7.016044 9.011327 12.037659 0.000000 0.000000 1.994610 -5.114286 11.829572 2.485826 0.000000 0.000000 -8.749900 0.825020 22.706335 -11.230856 0.000000 0.000000 14.756200 13.551811 -15.206673 22.679523 0.000000 0.000000 -20.974000 
-14.163667 9.218720 31.495874 -168.027785 -40.763563 168.631228 8.588305 1.968791 -17.389092 -11.645629 -1.852315 39.496772 0.000000 0.000000 0.000000 15.290969 -4.273262 3.471540 11.486616 0.811459 -61.816123 -25.573099 -1.946660 -8.719160 -27.251400 -11.269600 34.325012 0.000000 -30.650700 0.000000 5.712340 6.770720 -0.610695 34.547401 1.338230 -6.850900 41.077000 3.249250 24.495300 0.000000 23.979900 0.000000 5.660800 -1.592280 -2.105830 6.872606 9.000570 11.600892 0.000000 0.000000 2.779740 -4.729110 12.221094 2.353463 0.000000 0.000000 -9.059370 1.018305 24.422978 -11.274428 0.000000 0.000000 16.296301 14.116535 -14.687505 21.601910 0.000000 0.000000 -20.582990 
-14.148614 9.218115 31.513859 -167.977372 -40.581850 168.319510 7.514283 1.132758 -17.987236 -9.643845 -1.298255 40.684941 0.000000 0.000000 0.000000 14.745703 -4.577666 1.801345 10.971230 0.226852 -60.840504 -23.941000 -5.172030 -12.339800 -30.207800 -5.387910 33.360992 0.000000 -28.812401 0.000000 6.769620 6.665490 0.595089 32.336899 1.639850 -7.278090 42.431198 2.340460 25.558599 0.000000 24.360100 0.000000 6.041240 -1.701110 -1.301990 6.890121 8.917244 11.452563 0.000000 0.000000 3.444680 -4.643716 12.461313 1.990306 0.000000 0.000000 -9.479230 1.425304 26.268868 -10.952307 0.000000 0.000000 17.496500 14.549345 -14.797457 20.392991 0.000000 0.000000 -19.512010 
-14.139253 9.220037 31.532046 -167.927729 -40.651399 168.086863 7.270987 1.174382 -18.078329 -9.478909 -1.070628 40.909065 0.000000 0.000000 0.000000 14.670102 -4.713814 1.567245 10.741389 0.160468 -61.001805 -24.094200 -5.160290 -12.669300 -30.595200 -4.981300 33.273987 0.000000 -27.301100 0.000000 6.448820 6.892900 0.605538 31.866301 1.506790 -7.149190 42.865200 1.759490 26.808701 0.000000 24.768999 0.000000 6.371830 -1.683940 -1.074080 6.768767 8.445241 11.167220 0.000000 0.000000 4.117460 -4.426843 12.917804 1.745591 0.000000 0.000000 -9.787950 1.734117 27.664476 -10.555087 0.000000 0.000000 18.321800 15.347903 -15.284467 19.239187 0.000000 0.000000 -19.368110 
